<?xml version="1.0" encoding="UTF-8" standalone="no"?>
<!-- Created with Inkscape (http://www.inkscape.org/) -->

<svg
   xmlns:dc="http://purl.org/dc/elements/1.1/"
   xmlns:cc="http://creativecommons.org/ns#"
   xmlns:rdf="http://www.w3.org/1999/02/22-rdf-syntax-ns#"
   xmlns:svg="http://www.w3.org/2000/svg"
   xmlns="http://www.w3.org/2000/svg"
   xmlns:sodipodi="http://sodipodi.sourceforge.net/DTD/sodipodi-0.dtd"
   xmlns:inkscape="http://www.inkscape.org/namespaces/inkscape"
   width="48pt"
   height="48pt"
   viewBox="0 0 16.933334 16.933333"
   version="1.1"
   id="svg979"
   inkscape:version="0.92.4 (5da689c313, 2019-01-14)"
   sodipodi:docname="4 - Tractor.svg"
   inkscape:export-filename="E:\TR Design Studio Creative\Project Design\TR Creative Design\Icon Design\Project Hiring\Icon Icons\Project - 001\001 - Agriculture And Farming\Line\Export\3 - Fertilizer.png"
   inkscape:export-xdpi="768"
   inkscape:export-ydpi="768">
  <defs
     id="defs973" />
  <sodipodi:namedview
     id="base"
     pagecolor="#ffffff"
     bordercolor="#666666"
     borderopacity="1.0"
     inkscape:pageopacity="0.0"
     inkscape:pageshadow="2"
     inkscape:zoom="6.0435533"
     inkscape:cx="32"
     inkscape:cy="32"
     inkscape:document-units="pt"
     inkscape:current-layer="layer1"
     showgrid="false"
     units="pt"
     inkscape:window-width="1366"
     inkscape:window-height="716"
     inkscape:window-x="-8"
     inkscape:window-y="-8"
     inkscape:window-maximized="1"
     inkscape:snap-bbox="true"
     inkscape:bbox-nodes="true"
     inkscape:snap-nodes="false"
     showguides="false">
    <inkscape:grid
       type="xygrid"
       id="grid1526" />
    <sodipodi:guide
       position="0.97013909,15.963209"
       orientation="56.666615,0"
       id="guide1528"
       inkscape:locked="false" />
    <sodipodi:guide
       position="0.97013909,0.97016731"
       orientation="0,56.666667"
       id="guide1530"
       inkscape:locked="false" />
    <sodipodi:guide
       position="15.963195,0.97016731"
       orientation="-56.666615,0"
       id="guide1532"
       inkscape:locked="false" />
    <sodipodi:guide
       position="15.963195,15.963209"
       orientation="0,-56.666667"
       id="guide1534"
       inkscape:locked="false" />
  </sodipodi:namedview>
  <metadata
     id="metadata976">
    <rdf:RDF>
      <cc:Work
         rdf:about="">
        <dc:format>image/svg+xml</dc:format>
        <dc:type
           rdf:resource="http://purl.org/dc/dcmitype/StillImage" />
        <dc:title></dc:title>
      </cc:Work>
    </rdf:RDF>
  </metadata>
  <g
     inkscape:label="Layer 1"
     inkscape:groupmode="layer"
     id="layer1"
     transform="translate(0,-280.06668)">
    <path
       style="color:#000000;font-style:normal;font-variant:normal;font-weight:normal;font-stretch:normal;font-size:medium;line-height:normal;font-family:sans-serif;font-variant-ligatures:normal;font-variant-position:normal;font-variant-caps:normal;font-variant-numeric:normal;font-variant-alternates:normal;font-feature-settings:normal;text-indent:0;text-align:start;text-decoration:none;text-decoration-line:none;text-decoration-style:solid;text-decoration-color:#000000;letter-spacing:normal;word-spacing:normal;text-transform:none;writing-mode:lr-tb;direction:ltr;text-orientation:mixed;dominant-baseline:auto;baseline-shift:baseline;text-anchor:start;white-space:normal;shape-padding:0;clip-rule:nonzero;display:inline;overflow:visible;visibility:visible;opacity:1;isolation:auto;mix-blend-mode:normal;color-interpolation:sRGB;color-interpolation-filters:linearRGB;solid-color:#000000;solid-opacity:1;vector-effect:none;fill:#000000;fill-opacity:1;fill-rule:nonzero;stroke:none;stroke-width:0.529167;stroke-linecap:round;stroke-linejoin:round;stroke-miterlimit:4;stroke-dasharray:none;stroke-dashoffset:0;stroke-opacity:1;color-rendering:auto;image-rendering:auto;shape-rendering:auto;text-rendering:auto;enable-background:accumulate"
       d="m 3.5908978,282.50972 c -0.355152,0 -0.6512392,0.29609 -0.6512392,0.65124 v 0.32499 c 0,0.35516 0.2960872,0.65123 0.6512392,0.65123 v 2.28125 c -0.2265661,-10e-6 -0.4611731,0 -0.684946,0 -0.1653985,0 -0.2934211,0.15687 -0.293185,0.32435 v 0.65123 H 2.2884194 c -0.1593604,-3.2e-4 -0.295996,0.11446 -0.3224399,0.27156 L 1.6619834,289.501 c -0.2256332,0.18333 -0.4328317,0.39389 -0.6118089,0.63343 -0.28576856,0.3512 0.266111,0.7631 0.5215003,0.38922 0.6923519,-0.92661 1.8618744,-1.35737 2.9903578,-1.10341 1.1296942,0.25421 2.0023842,1.13808 2.2310018,2.2717 0.030185,0.15159 0.1627901,0.26106 0.317352,0.26203 h 2.9922676 c 0.08792,-1e-5 0.172093,-0.0356 0.233401,-0.0986 0.361718,-0.3603 0.873787,-0.55401 1.39851,-0.55266 0.528702,9.7e-4 1.032074,0.18884 1.392154,0.55266 0.06115,0.0629 0.145071,0.0983 0.232766,0.0986 h 2.278701 c 0.231308,0 0.324982,-0.13128 0.324982,-0.32693 v -0.65123 c 0.0023,-0.18282 -0.146617,-0.33158 -0.329436,-0.32945 -0.18008,10e-4 -0.324538,0.14936 -0.322438,0.32945 v 0.32688 h -0.648696 v -2.93248 c 0,-0.25431 -0.08804,-0.54361 -0.293185,-0.81278 -0.204065,-0.26776 -0.55862,-0.49424 -1.009928,-0.48779 v -1.30312 c 0,-0.35516 -0.296093,-0.65124 -0.65124,-0.65124 v -0.19206 l 0.228315,-0.22832 c 0.214486,-0.20658 0.06235,-0.56912 -0.235311,-0.56029 -0.08449,0.002 -0.164963,0.0379 -0.223864,0.0986 l -0.32689,0.32434 c -0.06059,0.0614 -0.09406,0.14457 -0.0935,0.23087 v 0.32688 c -0.355149,0 -0.651238,0.29608 -0.651238,0.65124 v 1.30312 H 10.33033 l -1.0665309,-2.9325 h 0.1876161 c 0.3551533,0 0.6512388,-0.29608 0.6512388,-0.65125 v -0.32497 c 0,-0.35516 -0.2960855,-0.65125 -0.6512388,-0.65125 z m 0,0.65124 h 5.8605174 v 0.32499 H 3.5908978 Z m 0.651875,0.97622 h 4.3297236 l 1.0690741,2.93821 c -0.3659735,0.0197 -0.72873,0.11703 -1.0512693,0.29955 l -0.3160788,-0.31481 6.511e-4,-6.6e-4 c 0.1215994,-0.22062 -0.042634,-0.48986 -0.2944544,-0.4827 -0.084596,0.002 -0.1648872,0.0379 -0.2238635,0.0986 l -0.3268927,0.32435 c -0.2640515,0.26493 0.052718,0.69358 0.3834951,0.51896 l 0.2613846,0.26265 c -0.1531192,0.16617 -0.2826474,0.36068 -0.3796788,0.58192 -0.9583343,-0.0346 -1.4635786,-0.43442 -1.7673751,-0.83949 -0.317696,-0.42359 -0.3873092,-0.83377 -0.3873092,-0.83377 -0.043315,-0.21734 -0.1844492,-0.27156 -0.3656847,-0.27156 H 4.2427903 Z m 7.8142342,1.62937 h 0.651238 v 1.30313 h -0.651238 z m -8.793001,1.30313 h 1.7075948 c 0.069523,0.21677 0.1950615,0.52675 0.4343716,0.84584 0.3793944,0.50586 1.0605144,1.00593 2.1158896,1.08878 -0.014587,0.11126 -0.024812,0.22501 -0.024812,0.34407 0,0.43426 0.6512392,0.43426 0.6512392,0 0,-0.56983 0.2032354,-0.95767 0.5024211,-1.22361 0.2984238,-0.26528 0.7094143,-0.40569 1.1244068,-0.4064 h 2.9331969 v 2.28125 c 6.51e-4,0.17896 0.145396,0.32372 0.324347,0.32435 h 0.978766 v 0.97877 h -0.526588 c -0.482061,-0.43251 -1.109929,-0.65058 -1.747659,-0.65189 -0.641171,-0.001 -1.27581,0.21985 -1.761019,0.65189 H 7.2929808 c -0.3627499,-1.24151 -1.3099232,-2.23183 -2.5865134,-2.51911 -0.7916322,-0.17814 -1.6010056,-0.0775 -2.30732,0.25375 l 0.1653538,-0.99212 h 0.6995732 c 0.4342608,0 0.4342608,-0.65124 0,-0.65124 z m 10.095479,0.64868 c 0.397448,0 0.651867,0.30104 0.651867,0.65188 v 1.30248 h -0.651873 z m -1.631914,0.64743 c -0.0112,6e-5 -0.0225,6.5e-4 -0.03371,0.002 -0.166503,0.0193 -0.29116,0.16183 -0.288096,0.32943 -0.444129,0 -0.895372,0 -1.336821,0 -0.433859,0.0228 -0.400154,0.67405 0.03371,0.65124 h 1.303113 c 0.0095,0.42463 0.641813,0.42463 0.65124,0 v -0.65124 c 0.0032,-0.18357 -0.145855,-0.33351 -0.329436,-0.33134 z m -7.8116896,1.63382 c -1.2549869,0 -2.2787011,1.0237 -2.2787011,2.27869 0,1.25499 1.0237142,2.27871 2.2787011,2.27871 1.2549865,0 2.2787,-1.02372 2.2787,-2.27871 0,-1.25499 -1.0237135,-2.27869 -2.2787,-2.27869 z m 0,0.65123 c 0.3349556,0 0.6445225,0.1008 0.9024493,0.27221 -0.25122,0.29803 0.154771,0.70404 0.4528147,0.4528 0.1714515,0.25793 0.2715615,0.56751 0.2715615,0.90245 0,0.33476 -0.1002924,0.64463 -0.2715615,0.90246 -0.058316,-0.049 -0.1298687,-0.08 -0.2066922,-0.0801 -0.2827127,-0.002 -0.4252263,0.32724 -0.2480303,0.53422 -0.2576011,0.17079 -0.566297,0.27092 -0.9005415,0.27092 -0.3344458,0 -0.6441208,-0.0999 -0.9018138,-0.27092 0.1807813,-0.21021 0.030648,-0.54495 -0.2569341,-0.53422 -0.073494,0.002 -0.1413547,0.0332 -0.1971525,0.0801 -0.1712684,-0.25783 -0.2715616,-0.5677 -0.2715616,-0.90246 0,-0.33494 0.1001104,-0.64452 0.2715616,-0.90245 0.298065,0.25125 0.7041474,-0.15476 0.4528147,-0.4528 0.2579265,-0.17146 0.5681295,-0.27221 0.9030857,-0.27221 z m 0,0.65189 c -0.5356413,0 -0.9762166,0.43993 -0.9762228,0.97557 -3.9e-6,0.53565 0.4405717,0.97624 0.9762228,0.97624 0.5356506,0 0.978134,-0.44059 0.9781305,-0.97624 -7.6e-6,-0.53564 -0.4424896,-0.97557 -0.9781305,-0.97557 z m 0,0.65124 c 0.1836911,0 0.3268887,0.14063 0.3268914,0.32433 1.2e-6,0.18368 -0.1432003,0.32435 -0.3268914,0.32435 -0.1836914,0 -0.324985,-0.14067 -0.3249836,-0.32435 2.2e-6,-0.18369 0.1412922,-0.32433 0.3249836,-0.32433 z m 7.8142326,0 c -0.71549,0 -1.303113,0.58508 -1.303113,1.30057 -7e-6,0.71551 0.587623,1.30247 1.303113,1.30247 0.715494,0 1.302488,-0.58696 1.302478,-1.30247 -3e-6,-0.71549 -0.586984,-1.30057 -1.302478,-1.30057 z m 0,0.64868 c 0.363534,0 0.651239,0.28836 0.651239,0.65189 3e-6,0.36354 -0.287697,0.65123 -0.651239,0.65123 -0.363534,0 -0.651242,-0.28769 -0.65124,-0.65123 0,-0.36353 0.287708,-0.65189 0.65124,-0.65189 z"
       id="path941"
       inkscape:connector-curvature="0"
       sodipodi:nodetypes="csscccccccccccccccccccccccccsccsccccccccscccssscccccccccccccccccccccccccccccccccssccccccccscccccscccccccccccccccccssssssccscccscccsccsscscsscscsscscsscscs" />
  </g>
</svg>
